<svg width="8" height="14" viewBox="0 0 8 14" fill="none" xmlns="http://www.w3.org/2000/svg">
<path d="M0.371308 13.2458C0.123769 12.9989 0 12.6902 0 12.3199C0 11.9383 0.123769 11.624 0.371308 11.3771L4.77637 6.98316L0.371308 2.60606C0.123769 2.3367 0 2.02244 0 1.66329C0 1.29292 0.123769 0.973059 0.371308 0.703699C0.64135 0.456785 0.956399 0.333328 1.31646 0.333328C1.68776 0.333328 2.00844 0.456785 2.27848 0.703699L7.62869 6.0404C7.87623 6.30976 8 6.62962 8 7C8 7.35914 7.87623 7.6734 7.62869 7.94276L2.27848 13.2458C2.00844 13.5264 1.68776 13.6667 1.31646 13.6667C0.956399 13.6667 0.64135 13.5264 0.371308 13.2458Z" fill="currentColor"/>
</svg>
