<svg fill="none" xmlns="http://www.w3.org/2000/svg" viewBox="0 0 16 16">
  <path d="M5.14 8c0-.8.05-1.56.13-2.29h5.46a20.27 20.27 0 0 1 0 4.58H5.27c-.09-.76-.13-1.53-.13-2.29Zm-1.02 2.29a21.5 21.5 0 0 1 0-4.58H.33a8 8 0 0 0 0 4.58h3.79ZM.77 11.43h3.5a14 14 0 0 0 .78 2.84c.2.53.45 1 .72 1.42a8.02 8.02 0 0 1-5-4.26Zm4.67 0h5.12c-.16.91-.4 1.73-.67 2.42-.3.73-.63 1.3-.97 1.66-.34.36-.65.49-.92.49s-.58-.13-.92-.5a5.3 5.3 0 0 1-.97-1.65c-.28-.69-.5-1.5-.67-2.42Zm6.28 0a14 14 0 0 1-.77 2.84c-.2.53-.45 1-.72 1.42a8.02 8.02 0 0 0 5-4.26h-3.5Zm3.95-1.14a8 8 0 0 0 0-4.58h-3.79a21.53 21.53 0 0 1 0 4.58h3.79ZM9.89 2.15c.28.69.5 1.5.67 2.42H5.44c.16-.91.4-1.73.67-2.42.3-.73.63-1.3.97-1.66C7.42.13 7.73 0 8 0s.58.13.92.5c.34.36.68.92.97 1.65Zm1.83 2.42h3.51a8.02 8.02 0 0 0-5-4.26c.27.41.51.89.72 1.42a14 14 0 0 1 .77 2.84Zm-10.95 0h3.5a14 14 0 0 1 .78-2.84c.2-.53.45-1 .72-1.42a8.02 8.02 0 0 0-5 4.26Z" fill="currentColor"/>
</svg>