<svg width="16" height="17" viewBox="0 0 16 17" fill="none" xmlns="http://www.w3.org/2000/svg">
<path d="M8 13.8333C6.76232 13.8333 5.57534 13.3417 4.70017 12.4665C3.825 11.5913 3.33333 10.4043 3.33333 9.16667C3.33333 7.92899 3.825 6.742 4.70017 5.86683C5.57534 4.99166 6.76232 4.5 8 4.5C9.23768 4.5 10.4247 4.99166 11.2998 5.86683C12.175 6.742 12.6667 7.92899 12.6667 9.16667C12.6667 10.4043 12.175 11.5913 11.2998 12.4665C10.4247 13.3417 9.23768 13.8333 8 13.8333ZM12.6867 5.42667L13.6333 4.48C13.3333 4.14 13.0333 3.83333 12.6933 3.54L11.7467 4.5C10.7133 3.66 9.41333 3.16667 8 3.16667C6.4087 3.16667 4.88258 3.79881 3.75736 4.92403C2.63214 6.04924 2 7.57537 2 9.16667C2 10.758 2.63214 12.2841 3.75736 13.4093C4.88258 14.5345 6.4087 15.1667 8 15.1667C11.3333 15.1667 14 12.48 14 9.16667C14 7.75333 13.5067 6.45333 12.6867 5.42667ZM7.33333 9.83333H8.66667V5.83333H7.33333V9.83333ZM10 1.16667H6V2.5H10V1.16667Z" fill="#AA9999"/>
</svg>
