<svg fill="none" xmlns="http://www.w3.org/2000/svg" viewBox="0 0 12 12">
  <path d="M11 11c.29-.29.43-.63.43-1.04 0-.4-.14-.74-.43-1.03L8.62 6.55A.73.73 0 0 1 8.39 6c0-.22.08-.4.23-.56L11 3.07c.29-.29.43-.63.43-1.03S11.29 1.29 11 1A1.41 1.41 0 0 0 9.96.57c-.4 0-.74.14-1.03.43L6.55 3.38a.78.78 0 0 1-.55.24.78.78 0 0 1-.55-.24L3.07 1A1.41 1.41 0 0 0 2.04.57C1.64.57 1.29.71 1 1c-.29.29-.43.63-.43 1.04 0 .4.14.74.43 1.03l2.38 2.38c.15.15.23.34.23.56 0 .2-.08.39-.23.54L1 8.93c-.29.29-.43.63-.43 1.03s.14.75.43 1.04c.29.29.63.43 1.04.43.4 0 .74-.14 1.03-.43l2.38-2.38A.71.71 0 0 1 6 8.4c.21 0 .4.07.55.22L8.93 11c.29.29.63.43 1.03.43s.75-.14 1.04-.43Z" fill="currentColor"/>
</svg>