<svg viewBox="0 0 55 52" fill="none" xmlns="http://www.w3.org/2000/svg">
  <path d="M54.6856 21.6543L49.9566 20.6258L53.1496 16.9084C50.3693 14.1493 44.3971 13.4257 38.2611 15.4196C37.3874 15.7023 36.5307 16.0352 35.6953 16.4165C35.7981 15.5133 35.8493 14.605 35.8488 13.696C35.8488 7.24587 33.3146 1.79165 29.8318 0L27.2813 4.18492L24.8416 0.00609726C21.3639 1.80486 18.8368 7.254 18.8368 13.696C18.8363 14.605 18.8876 15.5133 18.9903 16.4165C18.1549 16.0352 17.2982 15.7023 16.4245 15.4196C10.2886 13.4257 4.31935 14.1493 1.53602 16.9084L4.72597 20.6258L0 21.6543C0.635347 25.516 5.03805 29.6034 11.1679 31.5942C12.0274 31.8738 12.902 32.1046 13.7875 32.2853C13.1789 32.9517 12.608 33.6516 12.0777 34.3818C8.28391 39.6003 7.12809 45.5016 8.89385 48.9975L13.4175 47.1104L12.9347 51.9254C16.8047 52.5138 22.0542 49.588 25.8449 44.3787C26.3904 43.6294 26.8917 42.8489 27.3464 42.0413C27.8018 42.8487 28.3034 43.6291 28.8488 44.3787C32.6365 49.591 37.885 52.5087 41.7591 51.9254L41.2752 47.1104L45.7948 48.9975C47.5596 45.5016 46.4048 39.6003 42.61 34.3818C42.0796 33.6513 41.5084 32.9514 40.8991 32.2853C41.785 32.1046 42.66 31.8738 43.5198 31.5942C49.6466 29.6034 54.0493 25.516 54.6856 21.6543Z" fill="#BB0000"/>
  <path d="M41.0344 32.5526L41.0618 32.5333L41.0507 32.5018L50.0878 20.7265L49.9567 20.6248L50.0014 20.4653L35.8256 16.4958L35.8154 16.4663H35.7829L27.4186 4.09247L27.2814 4.18596L27.1432 4.09349L18.9019 16.4663H18.8704L18.8603 16.4958L4.68439 20.4663L4.72607 20.6259L4.59595 20.7275L13.6209 32.3402L13.2519 47.1063H13.4166L13.4715 47.2628L27.316 42.4356L27.3424 42.4549L27.3698 42.4356L41.2143 47.2628L41.2682 47.1063H41.4339L41.0344 32.5526ZM33.9429 37.2751V37.268L27.9584 37.6318L35.3437 33.3697L40.2577 32.7081L33.9429 37.2751ZM20.5894 37.1643L14.4321 32.7101L19.1876 33.3676L26.5515 37.6176L20.5894 37.1562V37.1643ZM16.51 24.76L18.5939 24.2691C18.642 24.3634 18.71 24.4462 18.7932 24.5116C18.8764 24.5771 18.9728 24.6237 19.0758 24.6482V33.018L14.0418 32.3209L16.51 24.76ZM34.5965 16.7976L27.2845 19.135L27.2651 19.1238L27.2468 19.135L20.07 16.7976H34.5965ZM19.7711 24.4368L22.4141 25.9094L21.3783 28.1634L19.6837 24.5171C19.7148 24.4925 19.744 24.4657 19.7711 24.4368ZM27.2631 23.951C27.3341 23.951 27.4047 23.9404 27.4725 23.9195L28.4891 25.6746H26.0432L27.0598 23.9195C27.1266 23.9383 27.1958 23.9472 27.2651 23.946L27.2631 23.951ZM28.6771 26.0049L30.143 28.5455L28.6771 31.0861H25.8521L24.3852 28.5455L25.8521 26.0049H28.6771ZM29.0594 26.0049H31.6089L30.3362 28.2071L29.0594 26.0049ZM31.1941 31.0861H29.0594L30.3341 28.8788L31.4005 30.7244C31.2986 30.8193 31.2265 30.9418 31.1931 31.077L31.1941 31.0861ZM28.4891 31.4164L27.2692 33.5343L26.0493 31.4164H28.4891ZM23.3392 31.0861C23.3064 30.9476 23.2335 30.8218 23.1298 30.7244L24.1951 28.8788L25.4699 31.0861H23.3392ZM24.1951 28.2162L22.9224 25.9998H25.4719L24.1951 28.2162ZM22.651 26.2031L24.004 28.5475L22.8431 30.5587C22.7275 30.5231 22.6047 30.5175 22.4863 30.5424L21.5714 28.5618L22.651 26.2031ZM22.1864 30.6827C22.0492 30.7902 21.9553 30.9436 21.9221 31.1147C21.889 31.2859 21.9187 31.4632 22.0059 31.6142C22.0931 31.7651 22.2319 31.8795 22.3967 31.9364C22.5615 31.9932 22.7414 31.9887 22.9031 31.9235L23.9888 33.4693L19.4915 33.0719L21.3844 28.9561L22.1864 30.6827ZM23.1745 31.7325C23.2546 31.6423 23.3112 31.5337 23.3392 31.4164H25.661L26.9988 33.7254L24.4188 33.4977L23.1745 31.7325ZM27.1005 34.078V37.143C27.0659 37.1515 27.0319 37.1624 26.9988 37.1755L24.6729 33.8636L27.1005 34.078ZM27.5366 37.1755C27.5035 37.1622 27.4695 37.1514 27.4349 37.143V34.0688L29.8655 33.8544L27.5366 37.1755ZM27.5366 33.7345L28.8754 31.4164H31.1982C31.2259 31.5305 31.2814 31.6359 31.3598 31.7233L30.1135 33.4977L27.5366 33.7345ZM31.6333 31.9235C31.795 31.9887 31.9748 31.9932 32.1397 31.9364C32.3045 31.8795 32.4433 31.7651 32.5305 31.6142C32.6177 31.4632 32.6474 31.2859 32.6143 31.1147C32.5811 30.9436 32.4872 30.7902 32.35 30.6827L33.152 28.9551L35.0448 33.0709L30.5466 33.4601L31.6333 31.9235ZM32.0501 30.5424C32.0016 30.5322 31.9522 30.5271 31.9027 30.5272C31.8317 30.5273 31.7611 30.538 31.6933 30.5587L30.5324 28.5475L31.8864 26.2031L32.966 28.5526L32.0501 30.5424ZM32.1172 25.9134L34.7602 24.4419C34.7877 24.4714 34.8172 24.4989 34.8486 24.5242L33.149 28.1583L32.1172 25.9134ZM34.5691 24.0303C34.5733 24.0706 34.5811 24.1104 34.5925 24.1492L31.9494 25.6228L30.5669 23.6756L34.5691 24.0303ZM31.5774 25.6746H28.8703L27.7612 23.7478C27.8495 23.6638 27.9152 23.5589 27.9523 23.4429L30.1339 23.634L31.5774 25.6746ZM27.9808 23.1157C27.9564 22.943 27.8705 22.785 27.7388 22.6706C27.6071 22.5563 27.4385 22.4933 27.2641 22.4933C27.0897 22.4933 26.9212 22.5563 26.7895 22.6706C26.6578 22.785 26.5719 22.943 26.5475 23.1157L24.6424 23.2874L27.2651 19.5964L29.8828 23.2793L27.9808 23.1157ZM26.582 23.449C26.6195 23.5651 26.6856 23.6699 26.7741 23.7539L25.6651 25.6746H22.9539L24.3903 23.6523L26.582 23.449ZM22.589 25.6177L19.9459 24.1431C19.9553 24.1119 19.9621 24.0799 19.9663 24.0476L23.9664 23.6858L22.589 25.6177ZM19.4122 24.6949L21.2055 28.5567L19.4122 32.456V24.6949ZM24.2429 33.8158L26.705 37.3219L19.9744 33.4398L24.2429 33.8158ZM30.2975 33.8158L34.562 33.4398L27.8364 37.3219L30.2975 33.8158ZM33.335 28.5526L35.1282 24.6909V32.4479L33.335 28.5526ZM30.3158 23.3189L27.8395 19.8342L34.5112 23.6889L30.3158 23.3189ZM24.2084 23.3281L19.9744 23.7132L26.6898 19.8373L24.2084 23.3281ZM35.4545 33.016V24.6502C35.5594 24.6256 35.6574 24.5779 35.7415 24.5105C35.8255 24.4432 35.8935 24.3579 35.9404 24.261L38.1769 24.761L40.6451 32.3209L35.4545 33.016ZM36.0136 23.9358C36.0123 23.7913 35.9678 23.6505 35.8857 23.5316C35.8037 23.4126 35.6879 23.3209 35.5533 23.2683C35.4187 23.2158 35.2714 23.2047 35.1304 23.2365C34.9894 23.2683 34.8612 23.3417 34.7622 23.447L27.6718 19.3556L35.5857 16.8251L38.0559 24.3931L36.0136 23.9358ZM27.5071 16.4663L27.4491 4.72966L35.3834 16.4663H27.5071ZM27.1767 16.4663H19.2994L27.1188 4.72864L27.1767 16.4663ZM26.8616 19.3556L19.7711 23.45C19.6721 23.3434 19.5433 23.269 19.4014 23.2367C19.2595 23.2043 19.1111 23.2155 18.9757 23.2687C18.8402 23.3219 18.724 23.4147 18.6421 23.535C18.5602 23.6553 18.5165 23.7974 18.5167 23.9429L16.632 24.388L19.1012 16.8251L26.8616 19.3556ZM13.7917 32.0201L5.19978 20.9622L16.1786 24.7224L13.7917 32.0201ZM13.9411 32.763L20.3261 37.3828L13.5955 46.5911L13.9411 32.763ZM20.5945 37.5769L26.9886 42.2029L13.8639 46.7761L20.5945 37.5769ZM27.3424 42.0484L21.0926 37.5261L26.5495 37.953C26.5759 38.1224 26.6617 38.277 26.7916 38.3891C26.9214 38.5012 27.0869 38.5635 27.2584 38.565C27.43 38.5664 27.5965 38.5069 27.7282 38.3971C27.86 38.2872 27.9484 38.1341 27.9777 37.9652L33.4539 37.6318L27.3424 42.0484ZM40.7121 32.7873L41.0913 46.5982L34.2062 37.4936L40.7121 32.7873ZM38.5123 24.7203L49.4911 20.9602L40.9266 32.1197L38.5123 24.7203ZM49.4017 20.6421L38.4096 24.4023L35.9506 16.8708L49.4017 20.6421ZM16.2792 24.4023L5.28822 20.6421L18.7383 16.8749L16.2792 24.4023ZM33.9378 37.6877L40.8067 46.774L27.6931 42.2009L33.9378 37.6877Z" fill="#FCFCFC"/>
</svg>
