<svg width="1352" height="1305" viewBox="0 0 1352 1305" fill="none" xmlns="http://www.w3.org/2000/svg">
    <g opacity="0.17">
        <path d="M1349.77 536.985L1233.52 511.695L1312.02 420.269C1243.66 352.442 1096.89 334.648 946.06 383.662C924.591 390.628 903.53 403.62 883 413C885.522 390.787 886.793 363.65 886.782 341.296C886.782 182.677 824.499 48.5564 738.882 4.50403L676.203 107.421L616.24 4.66245C530.77 48.8789 468.64 182.864 468.64 341.296C468.629 363.65 469.977 390.793 472.5 413C451.969 403.62 430.826 390.628 409.356 383.662C258.526 334.648 111.752 352.442 43.3996 420.269L121.895 511.7L5.65674 536.98C21.2924 631.936 129.503 732.437 280.152 781.401C301.281 788.279 322.781 793.957 344.551 798.409C329.583 814.786 315.55 831.994 302.52 849.952C209.3 978.273 180.868 1123.4 224.245 1209.37L335.437 1162.96L323.558 1281.34C418.684 1295.82 547.69 1223.94 640.797 1095.76C654.203 1077.33 666.53 1058.14 677.714 1038.28C688.896 1058.14 701.22 1077.34 714.625 1095.77C807.738 1223.94 936.738 1295.82 1031.86 1281.35L1019.98 1162.96L1131.18 1209.37C1174.55 1123.39 1146.12 978.279 1052.9 849.952C1039.87 831.994 1025.84 814.786 1010.87 798.409C1032.64 793.955 1054.14 788.275 1075.27 781.395C1225.92 732.438 1334.13 631.936 1349.77 536.98V536.985Z" stroke="#281818" stroke-width="0.5"/>
        <path fill-rule="evenodd" clip-rule="evenodd" d="M1010.11 802.941L677.713 1043.56L345.308 802.941L472.413 413.479H883.008L1010.11 802.941Z" stroke="#281818" stroke-width="0.5"/>
        <path d="M478.596 821.097L675.807 838.512M675.807 838.512L873.024 821.097L675.807 838.512Z" stroke="#281818" stroke-width="0.5"/>
        <path fill-rule="evenodd" clip-rule="evenodd" d="M873.024 821.097L675.807 934.979L478.596 821.097V593.338L675.807 479.456L873.024 593.338V821.097ZM873.018 592.755L675.807 575.516L873.018 592.755ZM478.596 593.338L675.807 575.516L478.596 593.338ZM873.024 593.338L789.669 772.761L873.024 593.338ZM675.807 934.979L789.669 772.761L675.807 934.979ZM478.596 593.338L561.956 772.761L478.596 593.338ZM675.807 934.979L561.956 772.761L675.807 934.979Z" stroke="#281818" stroke-width="0.5"/>
        <path fill-rule="evenodd" clip-rule="evenodd" d="M789.67 772.761L675.808 575.516L561.951 772.761H789.67Z" stroke="#281818" stroke-width="0.5"/>
        <path fill-rule="evenodd" clip-rule="evenodd" d="M561.951 639.778L675.807 837.029L789.669 639.778H561.951ZM478.596 593.338L561.956 639.772L478.596 593.338ZM789.669 639.778L873.024 593.338L789.669 639.778ZM675.807 837.029V934.979V837.029Z" stroke="#281818" stroke-width="0.5"/>
        <path d="M675.79 948.693C683.379 948.693 689.531 942.54 689.531 934.95C689.531 927.36 683.379 921.207 675.79 921.207C668.202 921.207 662.05 927.36 662.05 934.95C662.05 942.54 668.202 948.693 675.79 948.693Z" stroke="#281818" stroke-width="0.5"/>
        <path d="M478.562 607.002C486.151 607.002 492.303 600.849 492.303 593.259C492.303 585.669 486.151 579.516 478.562 579.516C470.973 579.516 464.821 585.669 464.821 593.259C464.821 600.849 470.973 607.002 478.562 607.002Z" stroke="#281818" stroke-width="0.5"/>
        <path d="M561.951 786.504C569.539 786.504 575.691 780.351 575.691 772.761C575.691 765.171 569.539 759.018 561.951 759.018C554.362 759.018 548.21 765.171 548.21 772.761C548.21 780.351 554.362 786.504 561.951 786.504Z" stroke="#281818" stroke-width="0.5"/>
        <path d="M789.67 786.504C797.259 786.504 803.41 780.351 803.41 772.761C803.41 765.171 797.259 759.018 789.67 759.018C782.081 759.018 775.929 765.171 775.929 772.761C775.929 780.351 782.081 786.504 789.67 786.504Z" stroke="#281818" stroke-width="0.5"/>
        <path d="M675.79 589.259C683.379 589.259 689.531 583.106 689.531 575.516C689.531 567.926 683.379 561.773 675.79 561.773C668.202 561.773 662.05 567.926 662.05 575.516C662.05 583.106 668.202 589.259 675.79 589.259Z" stroke="#281818" stroke-width="0.5"/>
        <path d="M873.024 607.081C880.612 607.081 886.764 600.928 886.764 593.338C886.764 585.748 880.612 579.595 873.024 579.595C865.435 579.595 859.283 585.748 859.283 593.338C859.283 600.928 865.435 607.081 873.024 607.081Z" stroke="#281818" stroke-width="0.5"/>
        <path d="M883.008 413.174L675.807 479.456M873.024 821.097L789.669 639.778L873.024 821.097ZM675.807 479.456L789.669 639.773L675.807 479.456ZM478.596 821.097L561.956 639.778L478.596 821.097ZM675.807 479.456L561.956 639.773L675.807 479.456ZM675.807 934.979L511.417 922.232L675.807 934.979ZM840.168 924.993L675.807 934.979L840.168 924.993ZM408.467 609.888L478.596 593.338L408.467 609.888ZM946.954 609.888L873.018 593.338L946.954 609.888ZM478.596 821.097L345.308 802.641L478.596 821.097ZM873.024 821.097L1010.11 802.641L873.024 821.097ZM472.413 413.174L675.807 479.456L472.413 413.174Z" stroke="#281818" stroke-width="0.5"/>
        <path d="M677.715 1043.56L1019.99 1162.96M677.715 413.479L676.204 107.421L677.715 413.479ZM408.469 609.888L121.907 511.695L408.469 609.888ZM335.438 1162.96L511.413 922.232L335.438 1162.96ZM1019.99 1162.96L840.169 924.993L1019.99 1162.96ZM1233.52 511.695L946.955 609.888L1233.52 511.695ZM1010.11 802.946L1233.52 511.695L1010.11 802.946ZM883.009 413.479L1233.52 511.7L883.009 413.479ZM472.414 413.479L676.204 107.421L472.414 413.479ZM883.009 413.479L676.204 107.421L883.009 413.479ZM344.551 798.414L121.907 511.695L344.551 798.414ZM472.414 413.479L121.907 511.7L472.414 413.479ZM344.551 798.414L335.438 1162.96L344.551 798.414ZM677.715 1043.56L335.438 1162.96L677.715 1043.56ZM1010.11 802.946L1019.99 1162.96L1010.11 802.946Z" stroke="#281818" stroke-width="0.5"/>
    </g>
</svg>
