<svg width="16" height="17" viewBox="0 0 16 17" fill="none" xmlns="http://www.w3.org/2000/svg">
<g clip-path="url(#clip0_285_3399)">
<path d="M13.1655 8.57442C13.1655 8.28915 13.0598 8.04109 12.8485 7.83023C12.6496 7.61938 12.4071 7.51395 12.1212 7.51395H10.0326C9.7467 7.51395 9.50427 7.41473 9.30536 7.21628C9.10645 7.00543 9.00699 6.75736 9.00699 6.47209V3.32791C9.00699 3.04264 8.90132 2.80078 8.68998 2.60233C8.47863 2.39147 8.22999 2.28605 7.94406 2.28605C7.65812 2.28605 7.40948 2.39147 7.19814 2.60233C6.99922 2.80078 6.89977 3.04264 6.89977 3.32791V8.57442C6.89977 8.85969 6.99922 9.10155 7.19814 9.3C7.40948 9.49845 7.65812 9.59767 7.94406 9.59767H12.1212C12.4071 9.59767 12.6496 9.49845 12.8485 9.3C13.0598 9.10155 13.1655 8.85969 13.1655 8.57442ZM0 8.5C0 7.38372 0.211344 6.34806 0.634033 5.39302C1.03186 4.43798 1.60373 3.58837 2.34965 2.84419C3.05828 2.13721 3.90365 1.56667 4.88578 1.13256C5.84305 0.710853 6.88112 0.5 8 0.5C9.11888 0.5 10.157 0.710853 11.1142 1.13256C12.1212 1.57907 12.9728 2.14961 13.669 2.84419C14.3901 3.56357 14.9557 4.41318 15.366 5.39302C15.7887 6.34806 16 7.38372 16 8.5C16 9.61628 15.7887 10.6519 15.366 11.607C14.9557 12.5868 14.3901 13.4364 13.669 14.1558C12.9728 14.8504 12.1212 15.4209 11.1142 15.8674C10.157 16.2891 9.11888 16.5 8 16.5C6.88112 16.5 5.84305 16.2891 4.88578 15.8674C3.90365 15.4333 3.05828 14.8628 2.34965 14.1558C1.60373 13.4116 1.03186 12.562 0.634033 11.607C0.211344 10.6519 0 9.61628 0 8.5Z" fill="#AA9999"/>
</g>
<defs>
<clipPath id="clip0_285_3399">
<rect width="16" height="16" fill="white" transform="translate(0 0.5)"/>
</clipPath>
</defs>
</svg>
