<svg width="16" height="16" viewBox="0 0 16 16" fill="none" xmlns="http://www.w3.org/2000/svg">
<path d="M2.19535 9.45116C2.19535 10.0465 2.4062 10.5612 2.82791 10.9953C3.24961 11.4171 3.75814 11.6279 4.35349 11.6279H13.1163V13.8047C13.1163 14.4124 12.8992 14.9333 12.4651 15.3674C12.0434 15.7891 11.5287 16 10.9209 16H2.19535C1.5876 16 1.06667 15.7891 0.632558 15.3674C0.210853 14.9333 0 14.4124 0 13.8047V7.27442C0 6.66667 0.210853 6.15194 0.632558 5.73023C1.06667 5.29612 1.5876 5.07907 2.19535 5.07907V9.45116ZM3.62791 8.72558C3.62791 9.12248 3.77054 9.46357 4.05581 9.74884C4.34109 10.0341 4.68217 10.1767 5.07907 10.1767H13.8047C14.4124 10.1767 14.9271 9.96589 15.3488 9.54419C15.7829 9.12248 16 8.60775 16 8V2.17674C16 1.5814 15.7829 1.07287 15.3488 0.651163C14.9271 0.217054 14.4124 0 13.8047 0H5.80465C5.2093 0 4.69457 0.217054 4.26047 0.651163C3.83876 1.07287 3.62791 1.5814 3.62791 2.17674V8.72558Z" fill="currentColor"/>
</svg>
