<svg fill="none" xmlns="http://www.w3.org/2000/svg" viewBox="0 0 16 16">
  <g clip-path="url(#a)" fill="currentColor">
    <path d="M6 .28a.77.77 0 0 1 .08.86 7.3 7.3 0 0 0 7.97 10.58.79.79 0 0 1 .81.3.73.73 0 0 1-.03.9A8.35 8.35 0 0 1 8.34 16 8.3 8.3 0 0 1 5.12.06.75.75 0 0 1 6 .28Z"/>
    <path d="M10.8 3.15a.22.22 0 0 1 .4 0l.4 1.16c.17.52.57.92 1.09 1.1l1.16.38a.22.22 0 0 1 0 .42l-1.16.38a1.73 1.73 0 0 0-1.1 1.1l-.38 1.16a.22.22 0 0 1-.42 0l-.38-1.16a1.73 1.73 0 0 0-1.1-1.1l-1.16-.38a.22.22 0 0 1 0-.42l1.16-.38a1.73 1.73 0 0 0 1.1-1.1l.38-1.16ZM13.85.1a.15.15 0 0 1 .28 0l.25.77c.12.35.4.62.74.73l.77.26a.14.14 0 0 1 .07.22.14.14 0 0 1-.07.06l-.77.25a1.16 1.16 0 0 0-.74.74l-.25.77a.15.15 0 0 1-.22.07.15.15 0 0 1-.06-.07l-.26-.77a1.16 1.16 0 0 0-.73-.74l-.77-.25a.14.14 0 0 1-.07-.22.14.14 0 0 1 .07-.06l.77-.26c.35-.11.62-.38.73-.73l.26-.77Z"/>
  </g>
</svg>