<svg width="24" height="24" fill="none" xmlns="http://www.w3.org/2000/svg"><path d="M12 24c6.627 0 12-5.373 12-12S18.627 0 12 0 0 5.373 0 12s5.373 12 12 12Z" fill="#627EEA"/><path d="M11.998 3v6.652l5.623 2.513L12 3Z" fill="#fff" fill-opacity=".602"/><path d="m11.998 3-5.623 9.165 5.623-2.512V3Z" fill="#fff"/><path d="M11.998 16.476v4.52l5.627-7.784-5.627 3.264Z" fill="#fff" fill-opacity=".602"/><path d="M11.998 20.996v-4.52l-5.623-3.264 5.623 7.784Z" fill="#fff"/><path d="m11.998 15.43 5.623-3.265L12 9.654v5.776Z" fill="#fff" fill-opacity=".2"/><path d="m6.375 12.165 5.623 3.265V9.654l-5.623 2.511Z" fill="#fff" fill-opacity=".602"/></svg>