<svg width="24" height="24" fill="none" xmlns="http://www.w3.org/2000/svg"><path d="M12 24c6.627 0 12-5.373 12-12S18.627 0 12 0 0 5.373 0 12s5.373 12 12 12Z" fill="#E8E1E1"/><path fill-rule="evenodd" clip-rule="evenodd" d="m11.763 5.682-.403-.68c-.89.453-1.538 1.828-1.538 3.453 0 .23.013.459.04.687a6.168 6.168 0 0 0-.657-.252c-1.571-.503-3.1-.32-3.812.376l.603.691 5.767 1.847V5.682Zm4.252 11.388L12.35 12.2l5.985-1.88.665.143c-.163.974-1.29 2.006-2.859 2.508-.22.07-.444.129-.67.174.155.168.302.345.438.53.971 1.316 1.267 2.804.815 3.686l-.709-.291Zm-.324 1.03-.084-.822-3.549-4.714-3.67 4.774-.077.762c.991.148 2.335-.59 3.306-1.904a5.99 5.99 0 0 0 .384-.59c.117.204.245.401.385.59.97 1.315 2.313 2.051 3.305 1.904Zm-7.647-1.054-.767.315c-.452-.882-.156-2.37.815-3.687.136-.184.282-.36.438-.529a6.213 6.213 0 0 1-.67-.174c-1.57-.502-2.697-1.534-2.86-2.508l.654-.14 6.064 1.942-3.674 4.781Zm10.563-7.78-.595.682-5.799 1.821V5.685L12.637 5c.892.452 1.54 1.828 1.54 3.455 0 .23-.012.459-.039.687a6.17 6.17 0 0 1 .657-.252c1.571-.503 3.1-.32 3.812.376Z" fill="#FCFCFC"/></svg>