<svg width="24" height="24" fill="none" xmlns="http://www.w3.org/2000/svg"><path d="M12 24c6.627 0 12-5.373 12-12S18.627 0 12 0 0 5.373 0 12s5.373 12 12 12Z" fill="#E8E1E1"/><g style="font-size:17.3333px"><path d="M12.94 14.167H9.883v-.415q0-.694.28-1.227.279-.542 1.176-1.371l.542-.491q.482-.44.702-.83.228-.389.228-.778 0-.593-.406-.923-.406-.338-1.134-.338-.685 0-1.481.287-.796.28-1.659.838V6.262q1.024-.356 1.87-.525.847-.17 1.634-.17 2.065 0 3.149.847 1.083.838 1.083 2.454 0 .83-.33 1.49-.33.652-1.126 1.405l-.542.482q-.575.525-.753.847-.178.313-.178.694zm-3.056 1.252h3.055v3.013H9.884Z" style="-inkscape-font-specification:'sans-serif Bold';fill:#fcfcfc" aria-label="?"/></g></svg>