<svg width="24" height="24" fill="none" xmlns="http://www.w3.org/2000/svg"><g clip-path="url(#a)"><path d="M12 0C5.345 0 0 5.345 0 12c0 6.654 5.345 12 12 12 6.654 0 12-5.346 12-12 0-6.655-5.346-12-12-12Z" fill="#F06"/><path d="M17.455 6.655c.763.763.763 1.854 0 2.618-.764.763-4.8 2.181-4.8 2.181s1.527-4.145 2.182-4.8c.654-.654 1.854-.763 2.618 0ZM12 1.964c.982 0 1.855.872 1.855 1.854C13.855 4.91 12 10.91 12 10.91s-1.854-6-1.854-7.09c0-.983.872-1.855 1.854-1.855Zm-5.345 4.69c.763-.763 1.854-.763 2.618 0 .764.764 2.182 4.8 2.182 4.8s-4.146-1.527-4.8-2.181c-.764-.764-.764-1.964 0-2.618ZM1.964 12c0-.982.873-1.855 1.854-1.855C4.8 10.145 10.91 12 10.91 12s-6 1.854-7.09 1.854c-1.091 0-1.855-.872-1.855-1.854Zm4.69 5.345c-.763-.763-.763-1.854 0-2.618.764-.763 4.8-2.182 4.8-2.182s-1.527 4.146-2.181 4.8c-.764.764-1.855.764-2.618 0ZM12 22.036c-.982 0-1.854-.872-1.854-1.854C10.146 19.2 12 13.09 12 13.09s1.855 6 1.855 7.09c0 1.092-.873 1.855-1.855 1.855Zm5.455-4.69c-.764.763-1.855.763-2.618 0-.764-.764-2.182-4.8-2.182-4.8s4.145 1.527 4.8 2.181c.654.764.654 1.964 0 2.618Zm2.727-3.492c-1.09 0-7.09-1.854-7.09-1.854s6-1.855 7.09-1.855c.982 0 1.855.873 1.855 1.855s-.873 1.854-1.855 1.854Z" fill="#fff"/></g><defs><clipPath id="a"><path fill="#fff" d="M0 0h24v24H0z"/></clipPath></defs></svg>