<svg width="24" height="24" fill="none" xmlns="http://www.w3.org/2000/svg"><path fill-rule="evenodd" clip-rule="evenodd" d="M11.215.01C4.823.502.011 5.636 0 11.973c-.013 7.997 7.6 13.743 15.316 11.56 4.022-1.138 7.24-4.436 8.292-8.499C25.44 7.95 20.648.948 13.357.064c-.38-.046-1.785-.082-2.142-.054Zm1.967.39c6.79.743 11.476 6.983 10.273 13.679-1.038 5.781-6.315 9.92-12.17 9.545-7.272-.466-12.337-7.36-10.6-14.43C2.062 3.59 7.481-.223 13.182.4ZM5.185 2.884c-.162.047-.507.462-.699.842-.373.74-.507 1.424-.508 2.602-.001.783.009.925.117 1.69l.06.422-.127.393c-1.384 4.271-.416 7.924 2.52 9.51l.232.125v.625c.001.406.01.64.027.672.032.059.838.454 1.29.632.775.305 1.609.53 2.426.656a.532.532 0 0 1 .099.02c0 .003-.033.094-.073.202-.235.629-.013 1.4.518 1.802 1.351 1.024 3.104-.41 2.408-1.971-.02-.047-.046-.04.44-.125 1.05-.186 2.238-.6 3.042-1.06.269-.154.252-.093.252-.905v-.7l.087-.052c2.891-1.7 3.838-4.99 2.73-9.489a2.802 2.802 0 0 1-.083-.404c.028-.077.085-.899.097-1.39.042-1.618-.221-2.937-.743-3.732-.239-.364-.296-.383-1.097-.36-1.155.032-2.136.455-3.1 1.335l-.236.215-.216-.081c-1.756-.661-3.735-.673-5.23-.031l-.263.113-.238-.187c-.942-.74-1.978-1.238-2.85-1.37-.198-.029-.78-.029-.882 0Zm.798.372c.855.115 1.95.664 2.882 1.446l.234.196.279-.135c1.386-.67 3.218-.707 4.997-.097.164.056.365.132.445.169l.146.066.25-.252c.984-.995 2.209-1.487 3.442-1.384l.204.017.097.142c.605.89.843 2.64.634 4.669l-.037.356.096.395c.868 3.589.465 6.266-1.21 8.036-1.75 1.85-4.946 2.634-8.611 2.11-3.176-.453-5.156-1.974-5.796-4.453-.42-1.626-.274-3.723.399-5.726l.115-.345-.047-.283c-.362-2.185-.1-4 .693-4.818l.13-.134h.238c.13 0 .32.011.42.025Zm1.823 7.904c-.4.106-.743.434-.805.769-.061.325.325.414.419.096.188-.638 1.176-.653 1.46-.022.08.179.117.213.236.214.29.002.25-.38-.079-.731-.292-.313-.787-.444-1.231-.326Zm7.673-.002c-.514.142-.986.761-.762 1 .126.135.278.072.383-.157.207-.455.764-.602 1.207-.32.118.075.25.255.25.341 0 .096.109.196.213.196.403 0 .172-.687-.318-.947a1.493 1.493 0 0 0-.973-.113Zm-3.821 1.145c-.785.068-1.222.283-1.222.602 0 .547.471.996 1.127 1.073l.135.016-.013.124c-.03.3-.327.71-.621.858-.443.226-.96.149-1.44-.214-.293-.22-.346-.236-.46-.137-.19.163.04.44.585.704.853.412 1.704.163 2.18-.638l.06-.103.077.136c.5.883 1.63 1.052 2.54.377.288-.213.34-.33.207-.464-.104-.104-.172-.092-.387.072-.58.442-1.152.516-1.614.207-.368-.246-.698-.93-.449-.93.617 0 1.258-.644 1.184-1.191-.047-.356-.899-.577-1.89-.492Zm.52 7.493c.277.233.178 1.012-.129 1.012-.088 0-.206-.132-.25-.279-.134-.452.123-.948.38-.733Zm-.579.853c.19.523.702.52.916-.008l.053-.132.092.042c.558.253.895.934.767 1.55-.231 1.102-1.572 1.505-2.364.71-.668-.669-.518-1.785.298-2.22.197-.106.177-.11.238.058Z" fill="#050404"/><path fill-rule="evenodd" clip-rule="evenodd" d="M5.397 3.248c-.294.03-.748.868-.916 1.694-.17.836-.16 2.048.028 3.204l.054.33-.09.256a12.206 12.206 0 0 0-.664 3.667l-.014.542.126.122c1.504 1.455 3.727 1.359 5.477-.238.378-.345 1.062-.742 1.561-.908 1.298-.43 2.518-.123 3.64.915.915.845 1.708 1.252 2.618 1.34.94.093 2.03-.327 2.736-1.055l.102-.105.024-.38c.062-1.019-.233-3.351-.52-4.106-.012-.031-.007-.167.013-.34.208-1.825.03-3.53-.47-4.49-.203-.391-.21-.396-.498-.423-1.14-.106-2.39.398-3.347 1.349l-.287.285-.318-.125c-1.835-.723-3.778-.722-5.293.003l-.275.13-.098-.094c-.797-.769-2.2-1.472-3.122-1.564a1.728 1.728 0 0 0-.467-.009Zm1.242 1.323c.963.32 1.809 1.067 1.62 1.43-.03.06-.169.187-.203.187-.167 0-1.404.718-1.787 1.037l-.22.185h-.142c-.355-.001-.377-.125-.287-1.653.07-1.194.276-1.433 1.019-1.186Zm11.265-.046c.373.11.49.677.492 2.381v.334l-.078.077c-.163.164-.334.14-.6-.082-.373-.311-.662-.49-1.31-.814-.687-.343-.718-.368-.718-.558 0-.541 1.613-1.517 2.214-1.338Zm-9.29 4.399c.657.154.87.712.426 1.112-.672.604-2.022.386-2.025-.327-.002-.536.86-.96 1.6-.785Zm7.515.011c.727.185 1.06.752.675 1.149-.503.517-1.757.341-2.049-.288-.272-.585.515-1.079 1.374-.86Zm-7.692 2.199c.56.118 1.091.794.817 1.04-.143.127-.306.057-.387-.168-.225-.625-1.307-.594-1.444.042a.22.22 0 0 1-.438-.05c.009-.556.77-1.01 1.452-.864Zm7.664.001c.454.096.832.443.888.813.051.345-.347.402-.445.063-.18-.617-1.16-.612-1.442.007-.085.187-.158.24-.289.212-.18-.04-.21-.219-.08-.478.245-.49.795-.739 1.368-.617Z" fill="#DB8B24"/><path fill-rule="evenodd" clip-rule="evenodd" d="M11.594 11.776c-.746.117-1.59.524-2.17 1.046-1.786 1.606-3.835 1.722-5.453.308l-.145-.127v.082c0 .141.046.553.095.844.507 3.015 2.726 4.747 6.561 5.12 4.86.474 8.327-1.228 9.3-4.564.106-.366.264-1.196.266-1.404 0-.018-.054.02-.122.083-1.605 1.508-3.535 1.37-5.405-.386-.829-.779-1.938-1.158-2.928-1.002Zm.804.512c1.023.073 1.318.323 1.1.93-.15.415-.695.792-1.146.792-.156 0 .04.495.298.749.47.464 1.134.434 1.79-.082.307-.242.636-.018.383.262-.769.85-2.135.775-2.733-.152l-.106-.165-.082.142c-.419.731-1.335.98-2.153.585-.599-.29-.833-.62-.544-.77.1-.052.162-.03.38.135.888.672 1.921.363 2.093-.626l.012-.073-.13-.015c-.617-.077-1.047-.446-1.126-.967-.057-.37.145-.552.753-.676.41-.083.743-.102 1.212-.068Zm-.467 7.525c-.316.336-.072 1.223.251.913.187-.18.197-.665.019-.882-.085-.102-.192-.114-.27-.031Zm-.75 1.414v.116h.744v.233h-.744v.233h.372c.205 0 .372.006.372.014a.732.732 0 0 1-.077.123 41 41 0 0 0-.372.541l-.294.434.092.061.091.06.298-.437c.422-.62.373-.56.404-.508.108.177.63.946.641.946.043 0 .173-.103.163-.13-.007-.016-.17-.266-.362-.555-.193-.288-.35-.53-.35-.537 0-.007.167-.012.373-.012h.374l-.008-.11-.007-.111-.372-.012-.372-.011v-.21l.378-.006.378-.007v-.231h-1.722v.116Z" fill="#F8EDE0"/><path fill-rule="evenodd" clip-rule="evenodd" d="m11.215.382-.36.033C2.792 1.16-2.05 9.928 1.589 17.195c4.013 8.017 15.231 8.663 20.145 1.162C26.752 10.695 21.277.454 12.124.38a25.557 25.557 0 0 0-.909.002ZM6.281 2.905c.823.173 1.823.681 2.671 1.356l.204.162.222-.097c1.536-.674 3.555-.648 5.422.07.067.026.075.021.244-.14.94-.894 1.993-1.355 3.177-1.39.544-.016.82.024.913.134.757.89 1.09 2.871.856 5.103l-.033.32.091.378c.592 2.44.588 4.617-.013 6.225a6.123 6.123 0 0 1-2.012 2.76c-.205.159-.762.531-.795.531-.01 0-.02.33-.02.734v.733l-.13.084c-.755.483-2.352 1.027-3.484 1.186-.091.013-.11.023-.096.054.379.9-.01 1.89-.867 2.215-1.266.479-2.546-.734-2.113-2.003.037-.109.068-.207.068-.219 0-.011-.146-.046-.325-.076-1.081-.183-2.7-.748-3.38-1.18l-.1-.062v-1.291l-.213-.117c-2.498-1.363-3.565-4.013-3.03-7.531.107-.707.284-1.45.503-2.107.084-.25.098-.319.084-.396-.345-1.86-.183-3.717.414-4.749.223-.385.54-.722.7-.741.209-.026.813.006 1.042.054Zm5.064 17.711a1.395 1.395 0 0 0-.38 2.083c.199.252.156.277.57-.333l.363-.534h-.74v-.256h.744v-.209h-.747l.007-.134.007-.134h1.746v.256l-.38.006-.38.007.008.098.007.099.372.011.373.012v.233l-.367.006-.366.006.355.535c.195.294.366.534.381.535a.633.633 0 0 0 .155-.14 1.388 1.388 0 0 0-.042-1.92c-.136-.137-.441-.341-.463-.31a1.054 1.054 0 0 0-.034.105c-.11.383-.505.536-.769.298-.085-.077-.212-.299-.212-.37 0-.056-.046-.045-.208.05Zm.363 1.955c-.245.364-.315.483-.291.498.258.164.999.172 1.215.014.038-.028-.444-.827-.587-.975-.008-.008-.16.2-.337.463Z" fill="#C31B33"/><path fill-rule="evenodd" clip-rule="evenodd" d="M11.477.361c.042.005.11.005.151 0 .042-.005.008-.01-.075-.01-.083 0-.117.005-.076.01Zm.885 0c.041.005.11.005.15 0 .043-.005.008-.01-.075-.01-.083 0-.117.005-.075.01ZM5.484 2.853c.06.004.16.004.22 0 .062-.005.012-.01-.11-.01-.121 0-.171.005-.11.01Zm12.72.023c.08.005.21.005.29 0 .08-.005.015-.008-.145-.008-.16 0-.225.003-.145.008Zm-14.449.885-.29.297.296-.29c.276-.27.308-.304.291-.304a11.6 11.6 0 0 0-.297.297Zm16.468.006c.14.14.26.256.267.256a3.72 3.72 0 0 0-.244-.256 3.968 3.968 0 0 0-.267-.256c-.006 0 .103.115.244.256Zm-8.7.086c.042.006.11.006.152 0 .042-.005.007-.009-.076-.009s-.117.004-.075.01Zm.49 0a.74.74 0 0 0 .15 0c.042-.005.008-.009-.075-.009-.083 0-.117.004-.075.01Zm-.617.395a.19.19 0 0 0 .081 0c.022-.005.004-.01-.04-.01-.045 0-.064.005-.041.01Zm.826 0c.03.006.071.006.093 0 .023-.006-.001-.01-.052-.01-.052 0-.07.005-.04.01Zm-3.276.527c0 .004.034.038.076.076l.075.068-.068-.076c-.064-.07-.083-.086-.083-.068ZM4.345 6.048c0 .083.004.117.01.076a.743.743 0 0 0 0-.151c-.006-.042-.01-.008-.01.075Zm15.29-.07c0 .045.005.064.01.041a.19.19 0 0 0 0-.081c-.005-.023-.01-.004-.01.04Zm.396.117c0 .057.005.081.01.052a.335.335 0 0 0 0-.105c-.005-.028-.01-.005-.01.053Zm-16.08.233c0 .147.003.207.008.133a2.594 2.594 0 0 0 0-.267c-.005-.074-.008-.014-.008.134Zm15.71.36c0 .141.004.196.009.122a2.73 2.73 0 0 0 0-.256c-.005-.067-.009-.006-.009.134Zm-15.316-.07c0 .09.004.124.01.076a.87.87 0 0 0 0-.163c-.006-.042-.01-.002-.01.088Zm-.375.361c0 .045.005.064.011.041a.19.19 0 0 0 0-.081c-.006-.023-.01-.004-.01.04Zm.396.094c0 .044.005.063.01.04a.192.192 0 0 0 0-.081c-.005-.023-.01-.004-.01.04Zm15.666.22c0 .065.004.088.01.053a.411.411 0 0 0 0-.117c-.006-.028-.01 0-.01.065Zm-.397.14c0 .052.005.07.01.04a.252.252 0 0 0 0-.092c-.006-.022-.01.001-.01.052ZM8.08 11.117c.042.005.11.005.151 0 .042-.005.008-.01-.075-.01-.084 0-.118.005-.076.01Zm7.657 0c.042.005.11.005.152 0 .041-.005.007-.01-.076-.01s-.117.005-.075.01ZM.364 11.32c0 .052.005.07.01.04a.254.254 0 0 0 0-.092c-.005-.023-.01.001-.01.052Zm23.253.035c0 .058.004.081.01.053a.335.335 0 0 0 0-.105c-.006-.029-.01-.005-.01.052Zm-3.167.023c0 .045.005.064.01.041a.19.19 0 0 0 0-.081c-.005-.023-.01-.004-.01.04Zm-11.445.07c.05.052.096.093.103.093a.404.404 0 0 0-.08-.093.647.647 0 0 0-.102-.093c-.007 0 .03.042.08.093Zm-1.758.018-.08.087.087-.08a.788.788 0 0 0 .087-.088c0-.017-.02 0-.094.08Zm12.832.192c0 .057.004.081.01.052a.329.329 0 0 0 0-.105c-.006-.028-.01-.005-.01.053Zm.397.186c0 .096.004.135.01.087a.998.998 0 0 0 0-.174c-.006-.048-.01-.009-.01.087Zm-20.133.14c0 .109.004.153.01.099a1.347 1.347 0 0 0 0-.198c-.006-.055-.01-.01-.01.099Zm3.466.023c0 .058.005.081.01.052a.33.33 0 0 0 0-.104c-.005-.03-.01-.006-.01.052Zm-.394.151c0 .077.004.106.01.064a.625.625 0 0 0 0-.14c-.006-.035-.01 0-.01.076Zm17.06.373c0 .09.005.123.01.075a.869.869 0 0 0 0-.163c-.005-.041-.01-.002-.01.088Zm3.142.105c0 .057.004.08.01.052a.335.335 0 0 0 0-.105c-.006-.029-.01-.005-.01.053ZM.363 12.67c0 .052.005.07.01.041a.254.254 0 0 0 0-.093c-.005-.022-.01.001-.01.053Zm19.715.035c0 .058.004.082.01.053a.329.329 0 0 0 0-.105c-.006-.029-.01-.005-.01.052Zm-16.665.233c0 .07.005.1.01.064a.514.514 0 0 0 0-.128c-.005-.035-.01-.006-.01.064Zm9.814.67-.08.087.087-.08a.79.79 0 0 0 .088-.088c0-.018-.02 0-.095.08Zm-.604 1.158a.509.509 0 0 0 .091.081c.006 0-.024-.036-.067-.081a.503.503 0 0 0-.09-.082c-.007 0 .023.037.066.082Zm-.303.297c.057.06.107.11.11.11.018 0 0-.02-.103-.117l-.11-.104.103.11Zm-1.832.476a.415.415 0 0 0 .117 0c.028-.006 0-.01-.065-.01-.064 0-.087.005-.052.01Zm2.886 0a.414.414 0 0 0 .117 0c.028-.006 0-.01-.065-.01-.064 0-.087.005-.052.01Zm5.079 1.316-.092.1.099-.093c.092-.085.11-.106.092-.106-.004 0-.049.045-.1.1Zm-13.184.024c0 .004.08.085.18.18l.18.175-.174-.18c-.161-.168-.186-.192-.186-.175Zm12.916.244-.08.087.087-.08c.081-.075.098-.094.08-.094a.794.794 0 0 0-.087.087Zm-6.975 2a.19.19 0 0 0 .081 0c.022-.005.004-.01-.04-.01-.046 0-.064.005-.041.01Zm.71.025a.62.62 0 0 0 .14 0c.034-.006 0-.01-.077-.01s-.105.005-.063.01Zm.441 0a.86.86 0 0 0 .163 0c.048-.005.015-.01-.075-.01s-.13.005-.088.01Zm8.256.664-.068.076.075-.069a.579.579 0 0 0 .076-.076c0-.017-.02-.002-.083.069Zm-16.861.425a3.3 3.3 0 0 0 .231.22c.007 0-.087-.099-.208-.22a3.305 3.305 0 0 0-.232-.221c-.006 0 .087.1.209.22Zm16.455 0a1.62 1.62 0 0 0-.162.174 2.1 2.1 0 0 0 .186-.174c.095-.096.168-.175.161-.175-.006 0-.09.079-.185.175Zm-7.18.593c.05.052.096.093.102.093a.406.406 0 0 0-.079-.093.65.65 0 0 0-.103-.093c-.006 0 .03.042.08.093Zm-2.588.99c0 .09.005.123.01.075a.869.869 0 0 0 0-.163c-.006-.041-.01-.002-.01.088Zm3.003 0c0 .09.004.123.01.075a.868.868 0 0 0-.001-.163c-.005-.041-.01-.002-.01.088Zm-.416.995-.092.099.099-.092c.092-.086.11-.106.092-.106-.004 0-.049.045-.1.099Zm.139.14-.068.075.075-.068a.579.579 0 0 0 .076-.076c0-.018-.02-.002-.083.069Zm-2.03.662a.193.193 0 0 0 .082 0c.022-.006.004-.01-.04-.01-.045 0-.064.004-.041.01Zm1.63 0a.184.184 0 0 0 .081 0c.023-.006.005-.01-.04-.01s-.064.004-.041.01Zm-1.152.024c.067.005.177.005.244 0s.012-.008-.122-.008c-.135 0-.19.003-.122.008Zm.512 0c.067.005.177.005.244 0s.013-.008-.122-.008c-.134 0-.19.003-.122.008Z" fill="#791924"/><path fill-rule="evenodd" clip-rule="evenodd" d="M6.106 4.51c-.408.124-.473.391-.524 2.146-.02.674.015.753.325.754h.141l.221-.184c.383-.32 1.62-1.038 1.787-1.038.083 0 .238-.209.238-.32 0-.512-1.635-1.526-2.188-1.358Zm11.225.06c-.82.276-1.641.924-1.641 1.293 0 .19.031.215.718.558.648.323.937.503 1.31.814.266.222.437.246.6.082l.078-.077v-.334c-.001-.832-.07-1.765-.152-2.04-.103-.346-.441-.456-.913-.296ZM7.834 8.935c-1.2.315-1.028 1.463.216 1.45 1.094-.012 1.66-.946.828-1.368-.263-.133-.714-.168-1.044-.082Zm7.515-.01c-1.138.306-.671 1.457.591 1.46.902.002 1.338-.653.773-1.16-.308-.278-.935-.415-1.364-.3Zm-3.418 2.82c.074.006.194.006.268 0 .073-.004.013-.008-.134-.008-.147 0-.207.004-.134.009Zm.012.536c.055.005.139.005.187 0 .047-.005.002-.009-.1-.009-.102 0-.141.004-.087.01Zm2.612.53c.083.083.156.152.162.152.006 0-.056-.069-.138-.152a1.597 1.597 0 0 0-.162-.151c-.006 0 .056.068.138.151Zm-5.143 0a.529.529 0 0 0-.092.105.808.808 0 0 0 .115-.105.53.53 0 0 0 .091-.105.798.798 0 0 0-.114.105Zm1.006.093c0 .052.005.07.01.04a.254.254 0 0 0 0-.092c-.005-.023-.01.001-.01.052Zm-6.616.109c0 .015.007.02.016.011.009-.008.048.013.087.049l.072.064-.069-.076c-.07-.078-.106-.094-.106-.048Zm16.117.142-.115.122.122-.116c.114-.107.133-.129.116-.129-.004 0-.059.055-.123.123Zm-13.632.965c.067.005.177.005.244 0 .067-.004.012-.008-.122-.008s-.19.004-.122.008Zm10.916.07a.328.328 0 0 0 .105 0c.029-.006.005-.01-.053-.01-.057 0-.08.004-.052.01Zm.489 0a.29.29 0 0 0 .093 0c.022-.007-.001-.011-.052-.011-.052 0-.07.005-.041.01Zm-6.046.88a.53.53 0 0 0-.091.104.81.81 0 0 0 .114-.105.523.523 0 0 0 .091-.104.813.813 0 0 0-.114.104Zm-1.17.028a.62.62 0 0 0 .14 0c.036-.006.001-.01-.075-.01-.077 0-.106.005-.064.01Zm2.887 0a.62.62 0 0 0 .14 0c.035-.006 0-.01-.076-.01-.077 0-.106.005-.064.01ZM10.977 19.1a.19.19 0 0 0 .081 0c.023-.006.004-.01-.04-.01-.045 0-.064.004-.041.01Zm.465.024a.508.508 0 0 0 .128 0c.036-.005.007-.01-.064-.01-.07 0-.099.005-.064.01Zm1.304 0a.193.193 0 0 0 .081 0c.023-.006.004-.011-.04-.011-.045 0-.064.005-.041.01Zm-.977 1.148c0 .057.004.08.01.052a.329.329 0 0 0 0-.105c-.006-.029-.01-.005-.01.053Zm.372 1.187c0 .057.005.081.01.052a.329.329 0 0 0 0-.105c-.005-.028-.01-.005-.01.053Zm-.604.366c.265.006.362.015.35.034-.01.016-.005.02.011.01.078-.048 0-.06-.35-.056l-.38.006.369.006Zm.621 0c0 .01.113.015.25.012.447-.011.491-.02.117-.025-.202-.002-.367.004-.367.014Z" fill="#ECC48A"/></svg>